<svg data-bbox="20 35 159.999 130" viewBox="0 0 200 200" xmlns="http://www.w3.org/2000/svg" data-type="shape"><g><path d="M160.062 165H39.936C28.942 165 20 156.055 20 145.058V54.943C20.001 43.946 28.943 35 39.936 35h120.125c10.994 0 19.938 8.946 19.938 19.943v90.116c0 10.996-8.944 19.941-19.937 19.941zM39.936 44.845c-5.565 0-10.093 4.53-10.093 10.098v90.116c0 5.568 4.528 10.097 10.093 10.097h120.125c5.567 0 10.095-4.529 10.095-10.097V54.943c0-5.568-4.528-10.098-10.095-10.098H39.936z"/><path d="M100 112.433a4.914 4.914 0 0 1-2.822-.89L22.1 58.975a4.922 4.922 0 0 1 5.643-8.065L100 101.502l72.257-50.591a4.922 4.922 0 0 1 5.643 8.065l-75.078 52.567a4.914 4.914 0 0 1-2.822.89z"/></g></svg>