<svg data-bbox="8.47 0 483.06 500" viewBox="0 0 500 500" xmlns="http://www.w3.org/2000/svg" data-type="shape"><g><path d="m209.042.856-44.82.016C123.382.872 90.15 34.1 90.15 74.944c0 5.284.608 10.652 1.808 16.008-40.376 12.724-68.256 50.48-68.256 93.128 0 15.932 3.944 31.62 11.34 45.616C18.646 245.944 8.47 268.464 8.47 293.32c0 40.568 27.096 74.908 64.14 85.916a62.34 62.34 0 0 0-1.992 15.556c0 34.408 27.992 62.396 62.396 62.396 3.908 0 7.848-.392 11.784-1.156 1.464 24.492 21.844 43.968 46.7 43.968 25.656 0 46.784-20.752 46.784-46.344V30.096c-.004-16.124-13.112-29.24-29.24-29.24z"/><path d="M491.53 292.464c0-24.852-10.172-47.372-26.576-63.628 7.404-13.988 11.352-29.68 11.352-45.608 0-42.648-27.888-80.408-68.264-93.128 1.204-5.356 1.808-10.728 1.808-16.008 0-40.844-33.232-74.076-74.08-74.076L290.95 0c-16.124 0-29.236 13.116-29.236 29.248v340.008c0 .376-.24.752-.24 1.168 0 1.516.24 3.008.24 4.476v78.224h.016c.524 27.344 21.284 45.924 46.76 45.924 24.856 0 45.248-19.432 46.712-43.92 3.932.768 7.88 1.184 11.78 1.184 34.408 0 62.396-27.98 62.396-62.38 0-5.284-.688-10.488-1.984-15.548 37.04-11.012 64.136-45.352 64.136-85.92z"/></g></svg>