<svg data-bbox="82.339 0 327.299 491.977" viewBox="0 0 491.977 491.977" xmlns="http://www.w3.org/2000/svg" data-type="shape"><g><path d="M245.998 108.554c29.976 0 54.271-24.296 54.271-54.272C300.269 24.304 275.973 0 245.998 0c-29.978 0-54.29 24.304-54.29 54.281s24.312 54.273 54.29 54.273z"/><path d="M400.839 18.977c-10.398-8.738-25.949-7.398-34.727 3.017l-85.325 101.541a19.6 19.6 0 0 1-15.036 7.005h-39.525a19.599 19.599 0 0 1-15.037-7.005L125.865 21.994c-8.778-10.415-24.312-11.771-34.728-3.017-10.431 8.762-11.778 24.304-3.017 34.726l98.145 116.739V467.04c0 13.77 11.171 24.937 24.939 24.937 13.769 0 24.938-11.161 24.938-24.937V317.998h19.706V467.04c0 13.776 11.169 24.937 24.938 24.937 13.768 0 24.939-11.161 24.939-24.937V170.704l98.131-117.001c8.763-10.423 7.414-25.965-3.017-34.726z"/></g></svg>